<?xml version="1.0" standalone="no"?>
<!DOCTYPE svg PUBLIC "-//W3C//DTD SVG 20010904//EN"
 "http://www.w3.org/TR/2001/REC-SVG-20010904/DTD/svg10.dtd">
<svg version="1.0" xmlns="http://www.w3.org/2000/svg"
 width="450.000000pt" height="450.000000pt" viewBox="0 0 450.000000 450.000000"
 preserveAspectRatio="xMidYMid meet">
<metadata>
Created by potrace 1.14, written by Peter Selinger 2001-2017
</metadata>
<g transform="translate(0.000000,450.000000) scale(0.100000,-0.100000)"
fill="#000000" stroke="none">
<path d="M595 3734 c-109 -14 -275 -63 -275 -83 1 -21 23 -29 90 -32 128 -7
274 -89 399 -225 79 -87 181 -221 259 -344 l61 -95 -110 -760 c-60 -418 -114
-775 -120 -794 -26 -77 -129 -141 -231 -141 -31 0 -38 -3 -38 -20 0 -20 7 -20
335 -20 328 0 335 0 335 20 0 16 -7 20 -35 20 -68 0 -135 55 -135 111 0 30
149 1261 153 1265 1 2 178 -329 393 -734 307 -578 395 -737 410 -737 14 0 20
8 22 30 7 63 35 153 72 226 50 101 632 1110 637 1105 2 -2 38 -204 78 -449 41
-244 82 -476 90 -513 100 -435 312 -728 639 -885 122 -59 249 -83 401 -75 66
3 158 13 205 23 74 16 85 21 88 41 3 21 0 22 -65 22 -290 1 -501 183 -652 562
-53 133 -89 313 -256 1263 -91 517 -167 950 -170 963 -3 12 -13 22 -23 22 -12
-1 -150 -230 -472 -786 -250 -432 -457 -787 -460 -789 -3 -2 -143 254 -310
568 -342 641 -373 696 -472 819 -165 208 -362 347 -558 396 -74 19 -227 33
-285 26z"/>
</g>
</svg>
